# xmcd
#
# Track frame offsets:
#	150
#	22885
#	46377
#	61465
#	79227
#	97232
#	115400
#	131242
#	151685
#	174397
#	197884
#	212975
#	230750
#	248720
#	266890
#	282675
#	314557
#
# Disc length: 4206 seconds
#
# Revision: 1
# Processed by: cddbd v1.5.2PL0 Copyright (c) Steve Scherf et al.
# Submitted via: audiograbber 1.83.01
#
DISCID=08106c11
DTITLE=Sound Choice - Hits of Wynonna Judd - Vol. 1
DYEAR=1900
DGENRE=Karaoke
TTITLE0=Wynonna Judd - She is his only need (Karaoke)
TTITLE1=Wynonna Judd - To be loved by you (Karaoke)
TTITLE2=Wynonna Judd - Rock Bottom (Karaoke)
TTITLE3=Wynonna Judd - Only Love (Karaoke)
TTITLE4=Wynonna Judd - Tell me Why (Karaoke)
TTITLE5=Wynonna Judd - I Saw the Light (Karaoke)
TTITLE6=Wynonna Judd - Girls with Guitars (Karaoke)
TTITLE7=Wynonna Judd - My Strongest Weakness (Karaoke)
TTITLE8=Wynonna Judd - She is his only need (Demo)
TTITLE9=Wynonna Judd - To be loved by you (Demo)
TTITLE10=Wynonna Judd - Rock Bottom (Demo)
TTITLE11=Wynonna Judd - Only Love (Demo)
TTITLE12=Wynonna Judd - Tell me Why (Demo)
TTITLE13=Wynonna Judd - I Saw the Light (Demo)
TTITLE14=Wynonna Judd - Girls with Guitars (Demo)
TTITLE15=Wynonna Judd - My Strongest Weakness (Demo)
TTITLE16=Wynonna Judd - Data Track
EXTD=
EXTT0=
EXTT1=
EXTT2=
EXTT3=
EXTT4=
EXTT5=
EXTT6=
EXTT7=
EXTT8=
EXTT9=
EXTT10=
EXTT11=
EXTT12=
EXTT13=
EXTT14=
EXTT15=
EXTT16=
PLAYORDER=
